<svg width="512" height="512" viewBox="0 0 512 512" fill="none" xmlns="http://www.w3.org/2000/svg">
<path d="M320 42.6665C247.953 42.6968 186.207 94.1784 173.221 165.045C235.236 131.11 313.019 153.872 346.954 215.886C367.905 254.172 367.905 300.493 346.954 338.779C428.049 323.923 481.746 246.141 466.891 165.046C453.901 94.1355 392.091 42.6392 320 42.6665Z" fill="#3A4E89" fill-opacity="0.6"/>
<path d="M149.333 469.333C208.244 469.333 256 421.577 256 362.667C256 303.756 208.244 256 149.333 256C90.4229 256 42.6666 303.756 42.6666 362.667C42.6666 421.577 90.4229 469.333 149.333 469.333Z" fill="#3A4E89"/>
<path d="M234.667 149.333C168.888 149.34 113.822 199.202 107.307 264.658C161.404 241.415 224.1 266.428 247.342 320.525C258.887 347.393 258.887 377.825 247.342 404.693C317.685 397.699 369.038 335.005 362.044 264.663C355.535 199.197 300.456 149.328 234.667 149.333Z" fill="#3A4E89" fill-opacity="0.75"/>
</svg>
